<svg width="120" height="120" viewBox="0 0 120 120" fill="none" xmlns="http://www.w3.org/2000/svg">
<path d="M60 0C93.1368 0 120 26.8629 120 60C120 93.1368 93.1368 120 60 120C26.8629 120 0 93.1368 0 60C0 26.8629 26.8629 0 60 0ZM60 30C57.7218 30 55.839 31.6929 55.5408 33.8894L55.5 34.5V55.5H34.5C32.0147 55.5 30 57.5148 30 60C30 62.2782 31.6929 64.161 33.8894 64.4592L34.5 64.5H55.5V85.5C55.5 87.9852 57.5148 90 60 90C62.2782 90 64.161 88.3068 64.4592 86.1108L64.5 85.5V64.5H85.5C87.9852 64.5 90 62.4852 90 60C90 57.7218 88.3068 55.839 86.1108 55.5408L85.5 55.5H64.5V34.5C64.5 32.0147 62.4852 30 60 30Z" fill="#D9A761"/>
</svg>
