<svg width="56" height="34" viewBox="0 0 56 34" fill="none" xmlns="http://www.w3.org/2000/svg">
<path d="M28 10.5118C34.2591 10.5118 39.3333 15.5859 39.3333 21.8451C39.3333 28.1045 34.2591 33.1784 28 33.1784C21.7406 33.1784 16.6665 28.1045 16.6665 21.8451C16.6665 15.5859 21.7406 10.5118 28 10.5118ZM28 0.582031C41.0715 0.582031 52.3556 9.50706 55.4864 22.0145C55.7714 23.1529 55.0795 24.3069 53.9411 24.592C52.8024 24.8767 51.6486 24.1851 51.3636 23.0464C48.7034 12.4196 39.1103 4.83203 28 4.83203C16.8845 4.83203 7.28848 12.4261 4.63297 23.0594C4.34862 24.1979 3.19505 24.8903 2.05642 24.6061C0.91779 24.3217 0.225267 23.1682 0.509621 22.0295C3.63504 9.51474 14.9226 0.582031 28 0.582031Z" fill="#D9A761"/>
</svg>
