<svg width="39" height="39" viewBox="0 0 39 39" fill="none" xmlns="http://www.w3.org/2000/svg">
<path d="M36.2848 2.71519C33.6643 0.0948352 29.4159 0.0949476 26.7958 2.71547L25.1241 4.38733L34.6129 13.8761L36.285 12.2036C38.9049 9.58335 38.9049 5.33531 36.2848 2.71519ZM4.38943 25.1244L23.1354 6.3762L32.6243 15.8649L13.8786 34.6127C13.1165 35.3749 12.1578 35.9106 11.1093 36.1603L2.48199 38.2144C2.00694 38.3274 1.50722 38.1861 1.1619 37.8407C0.8166 37.4955 0.675169 36.9958 0.788269 36.5207L2.8425 27.8929C3.09206 26.8447 3.62756 25.8864 4.38943 25.1244ZM2.15625 2.625H24.2348L21.4226 5.4375H2.15625C1.37961 5.4375 0.75 4.80789 0.75 4.03125C0.75 3.2546 1.37961 2.625 2.15625 2.625ZM2.15625 10.125H16.7357L13.9235 12.9375H2.15625C1.37961 12.9375 0.75 12.3079 0.75 11.5312C0.75 10.7546 1.37961 10.125 2.15625 10.125ZM2.15625 17.625H9.2365L6.42433 20.4375H2.15625C1.37961 20.4375 0.75 19.8079 0.75 19.0312C0.75 18.2546 1.37961 17.625 2.15625 17.625Z" fill="#424759"/>
</svg>
