<svg width="43" height="43" viewBox="0 0 43 43" fill="none" xmlns="http://www.w3.org/2000/svg">
<path d="M6.71875 2.6875C6.00598 2.6875 5.3224 2.97065 4.8184 3.47465C4.3144 3.97865 4.03125 4.66223 4.03125 5.375V8.0625C4.03125 8.77527 4.3144 9.45885 4.8184 9.96285C5.3224 10.4669 6.00598 10.75 6.71875 10.75H8.0625V34.9375C8.0625 36.363 8.62879 37.7302 9.6368 38.7382C10.6448 39.7462 12.012 40.3125 13.4375 40.3125H29.5625C30.988 40.3125 32.3552 39.7462 33.3632 38.7382C34.3712 37.7302 34.9375 36.363 34.9375 34.9375V10.75H36.2812C36.994 10.75 37.6776 10.4669 38.1816 9.96285C38.6856 9.45885 38.9688 8.77527 38.9688 8.0625V5.375C38.9688 4.66223 38.6856 3.97865 38.1816 3.47465C37.6776 2.97065 36.994 2.6875 36.2812 2.6875H26.875C26.875 1.97473 26.5919 1.29115 26.0878 0.787151C25.5838 0.283147 24.9003 0 24.1875 0L18.8125 0C18.0997 0 17.4162 0.283147 16.9122 0.787151C16.4081 1.29115 16.125 1.97473 16.125 2.6875H6.71875ZM14.7812 13.4375C15.1376 13.4375 15.4794 13.5791 15.7314 13.8311C15.9834 14.0831 16.125 14.4249 16.125 14.7812V33.5938C16.125 33.9501 15.9834 34.2919 15.7314 34.5439C15.4794 34.7959 15.1376 34.9375 14.7812 34.9375C14.4249 34.9375 14.0831 34.7959 13.8311 34.5439C13.5791 34.2919 13.4375 33.9501 13.4375 33.5938V14.7812C13.4375 14.4249 13.5791 14.0831 13.8311 13.8311C14.0831 13.5791 14.4249 13.4375 14.7812 13.4375ZM21.5 13.4375C21.8564 13.4375 22.1982 13.5791 22.4502 13.8311C22.7022 14.0831 22.8438 14.4249 22.8438 14.7812V33.5938C22.8438 33.9501 22.7022 34.2919 22.4502 34.5439C22.1982 34.7959 21.8564 34.9375 21.5 34.9375C21.1436 34.9375 20.8018 34.7959 20.5498 34.5439C20.2978 34.2919 20.1562 33.9501 20.1562 33.5938V14.7812C20.1562 14.4249 20.2978 14.0831 20.5498 13.8311C20.8018 13.5791 21.1436 13.4375 21.5 13.4375ZM29.5625 14.7812V33.5938C29.5625 33.9501 29.4209 34.2919 29.1689 34.5439C28.9169 34.7959 28.5751 34.9375 28.2188 34.9375C27.8624 34.9375 27.5206 34.7959 27.2686 34.5439C27.0166 34.2919 26.875 33.9501 26.875 33.5938V14.7812C26.875 14.4249 27.0166 14.0831 27.2686 13.8311C27.5206 13.5791 27.8624 13.4375 28.2188 13.4375C28.5751 13.4375 28.9169 13.5791 29.1689 13.8311C29.4209 14.0831 29.5625 14.4249 29.5625 14.7812Z" fill="#B95571"/>
</svg>
